<svg width="609" height="80" fill="none" xmlns="http://www.w3.org/2000/svg"><path d="M437.742 0c3.538 0 5.308 0 6.407 1.1 1.099 1.1 1.099 2.87 1.099 6.41v48.345c0 3.54 0 5.31-1.099 6.41-1.099 1.1-2.869 1.1-6.407 1.1h-3.48c-3.538 0-5.307 0-6.407-1.1-1.099-1.1-1.099-2.87-1.099-6.41V7.51c0-3.54 0-5.31 1.099-6.41 1.1-1.1 2.869-1.1 6.407-1.1h3.48Z" fill="url(#a)"/><path d="M66.208 50.692c0 3.661-1.154 6.506-3.462 8.534-2.308 2.027-5.795 3.42-10.461 4.177a112.781 112.781 0 0 1-17.694 1.145c-4.504 0-8.951-.197-13.341-.591-4.391-.394-8.372-.901-11.944-1.521l-.495-.087a177.417 177.417 0 0 1-1.86-.34c-2.148-.407-3.223-.61-4.009-1.328a3.936 3.936 0 0 1-1.062-1.684c-.309-1.02-.014-2.136.576-4.37.58-2.197.87-3.296 1.521-3.989.429-.456.91-.768 1.501-.974.897-.313 2.064-.124 4.398.255.965.156 1.985.314 3.06.473 3.604.532 7.588.998 11.954 1.399 4.378.394 8.865.591 13.463.591 2.758 0 4.913-.056 6.464-.169a11.798 11.798 0 0 0 3.246-.554c.62-.253.938-.629.938-1.136a1.22 1.22 0 0 0-.628-1.183 6.903 6.903 0 0 0-2.111-.553c-.939-.141-2.327-.263-4.016-.376l-21.7-1.098a43.922 43.922 0 0 1-12.281-2.075 11.634 11.634 0 0 1-6.38-4.816A15.382 15.382 0 0 1 .01 32.528c0-3.83 1.282-6.731 3.846-8.703 2.565-1.971 6.292-3.323 11.184-4.055a122.898 122.898 0 0 1 17.825-1.098c2.759 0 5.601.097 8.528.29 2.928.195 5.799.448 8.613.761 2.815.313 5.42.626 7.815.939 1.797.235 2.695.352 3.427.843a3.925 3.925 0 0 1 1.555 2.228c.209.856-.002 1.792-.424 3.665l-.062.276c-.483 2.144-.724 3.215-1.3 3.91a3.604 3.604 0 0 1-1.705 1.164c-.856.284-2.003.109-4.297-.241-1.2-.183-2.448-.355-3.742-.514a204.106 204.106 0 0 0-11.258-1.061c-3.885-.25-7.74-.376-11.569-.376-2.983 0-5.291.04-6.923.122a12.63 12.63 0 0 0-3.331.47 1.21 1.21 0 0 0-.938 1.183 1.321 1.321 0 0 0 .506 1.135c.5.306 1.067.48 1.652.507.76.085 1.754.188 2.992.3l21.448 1.183c4.132.116 8.232.77 12.196 1.944 2.905.799 5.514 2.43 7.506 4.693 1.77 2.153 2.655 5.02 2.655 8.6Z" fill="url(#b)"/><path d="M470.243 1.578C469.217.76 467.709.76 464.692.76h-4.541c-3.017 0-4.525 0-5.551.818a3.758 3.758 0 0 0-.598.598c-.817 1.027-.817 2.536-.817 5.555 0 3.018 0 4.527.817 5.554a3.822 3.822 0 0 0 .598.598c1.026.818 2.534.818 5.551.818h4.541c3.017 0 4.525 0 5.551-.818a3.76 3.76 0 0 0 .598-.598c.817-1.027.817-2.536.817-5.554 0-3.019 0-4.528-.817-5.555a3.758 3.758 0 0 0-.598-.598Z" fill="url(#c)"/><path d="M454.265 62.266c1.1 1.1 2.869 1.1 6.407 1.1h3.481c3.538 0 5.307 0 6.406-1.1 1.099-1.1 1.099-2.87 1.099-6.41V27.532c0-3.54 0-5.31-1.099-6.41-1.099-1.1-2.868-1.1-6.406-1.1h-3.481c-3.538 0-5.307 0-6.407 1.1-1.099 1.1-1.099 2.87-1.099 6.41v28.322c0 3.54 0 5.31 1.099 6.41Z" fill="url(#d)"/><path d="M544.125 50.692c0 3.661-1.154 6.506-3.462 8.534-2.308 2.027-5.786 3.42-10.433 4.177a112.656 112.656 0 0 1-17.685 1.145 149.1 149.1 0 0 1-13.341-.591c-4.391-.394-8.375-.901-11.952-1.521-.826-.144-1.611-.287-2.356-.428-2.148-.406-3.222-.61-4.008-1.327a3.933 3.933 0 0 1-1.062-1.684c-.31-1.02-.014-2.136.576-4.37.58-2.197.87-3.296 1.52-3.989.193-.205.396-.38.615-.531.269-.184.561-.33.886-.443.898-.313 2.064-.124 4.398.255a210.117 210.117 0 0 0 3.061.473c3.603.532 7.584.998 11.943 1.399 4.379.394 8.87.591 13.473.591 2.758 0 4.91-.056 6.455-.169a11.874 11.874 0 0 0 3.255-.554c.619-.253.938-.629.938-1.136a1.232 1.232 0 0 0-.637-1.183 6.89 6.89 0 0 0-2.111-.553c-.986-.141-2.318-.263-4.007-.376l-21.7-1.098a43.984 43.984 0 0 1-12.29-2.075 11.61 11.61 0 0 1-6.371-4.816 15.384 15.384 0 0 1-1.876-7.894c0-3.83 1.279-6.731 3.837-8.703 2.558-1.971 6.289-3.323 11.193-4.055a122.898 122.898 0 0 1 17.826-1.098c2.758 0 5.6.097 8.528.29 2.927.195 5.798.448 8.612.761.952.106 1.879.212 2.782.317 1.768.207 3.443.415 5.024.622 1.804.236 2.705.354 3.436.845a3.915 3.915 0 0 1 1.555 2.228c.209.856-.003 1.795-.426 3.672l-.061.272c-.481 2.139-.722 3.209-1.297 3.902a3.63 3.63 0 0 1-1.711 1.168c-.854.282-1.999.108-4.288-.242-.781-.119-1.583-.233-2.404-.342l-.483-.064a204.15 204.15 0 0 0-12.118-1.17c-3.885-.25-7.74-.375-11.568-.375-2.984 0-5.292.04-6.924.122a12.71 12.71 0 0 0-3.34.47 1.217 1.217 0 0 0-.502.281 1.228 1.228 0 0 0-.142.159c-.16.214-.243.475-.238.742a1.328 1.328 0 0 0 .506 1.136c.495.306 1.061.481 1.642.507a134.066 134.066 0 0 0 3.002.3l21.448 1.183c4.132.116 8.232.77 12.196 1.944 2.906.799 5.514 2.43 7.506 4.693 1.72 2.153 2.58 5.02 2.58 8.6Z" fill="url(#e)"/><path d="M71.36 21.123c1.1-1.1 2.868-1.1 6.406-1.1h3.603c3.538 0 5.307 0 6.406 1.1 1.1 1.1 1.1 2.87 1.1 6.41v7.022a9.038 9.038 0 0 0 1.144 4.854 6.64 6.64 0 0 0 4.138 2.619c2.81.62 5.688.892 8.565.807 3.49 0 7.221-.169 11.193-.507 3.02-.257 6.175-.62 9.466-1.09V27.6c0-3.52 0-5.281 1.092-6.38 1.09-1.098 2.85-1.109 6.368-1.13l3.556-.022c3.558-.021 5.337-.032 6.444 1.07 1.107 1.1 1.107 2.88 1.107 6.44v25.479c0 6.703-1.295 12.022-3.884 15.959-2.59 3.936-6.514 6.752-11.774 8.448-5.26 1.69-11.975 2.535-20.143 2.535-3.716 0-7.528-.169-11.437-.507a134.666 134.666 0 0 1-14.155-1.963c-3.074-.585-4.61-.877-5.483-2.048a3.153 3.153 0 0 1-.133-.19 3.71 3.71 0 0 1-.131-.216c-.715-1.273-.346-2.85.392-6.006.742-3.171 1.112-4.757 2.219-5.577.128-.094.247-.172.386-.25 1.198-.679 2.866-.36 6.2.276.45.086.9.17 1.35.25l.424.076a131.587 131.587 0 0 0 6.454.975c5.014.624 10.062.937 15.114.94 3.545.109 7.086-.29 10.517-1.184a8.837 8.837 0 0 0 5.358-3.801 11.274 11.274 0 0 0 1.11-6.762c-.69.203-1.392.404-2.105.603a103.082 103.082 0 0 1-11.689 2.535 78.886 78.886 0 0 1-12.376.939c-6.88 0-12.34-.72-16.38-2.16-4.041-1.439-6.993-3.664-8.857-6.674-1.776-3.041-2.664-6.956-2.664-11.744v-9.979c0-3.54 0-5.31 1.099-6.41Z" fill="url(#f)"/><path d="M157.363 20.023c-3.538 0-5.307 0-6.407 1.1-1.098 1.1-1.098 2.87-1.098 6.41v28.322c0 3.54 0 5.31 1.098 6.41 1.1 1.1 2.869 1.1 6.407 1.1h3.509c3.538 0 5.307 0 6.406-1.1 1.1-1.1 1.1-2.87 1.1-6.41V37.209c2.53-.74 4.91-1.359 7.139-1.855a44.43 44.43 0 0 1 9.663-1.098 18.948 18.948 0 0 1 6.042.845 7.82 7.82 0 0 1 3.838 2.619 7.62 7.62 0 0 1 1.351 4.694v13.443c0 3.54 0 5.31 1.099 6.41 1.099 1.1 2.868 1.1 6.406 1.1h3.453c3.538 0 5.307 0 6.406-1.1 1.099-1.1 1.099-2.87 1.099-6.41V39.032h.029c0-.652-.017-1.287-.05-1.904a118.205 118.205 0 0 1 7.02-1.776 45.964 45.964 0 0 1 9.833-1.098 18.952 18.952 0 0 1 6.042.845 7.584 7.584 0 0 1 3.799 2.619 7.801 7.801 0 0 1 1.305 4.694v13.443c0 3.54 0 5.31 1.099 6.41 1.099 1.1 2.868 1.1 6.406 1.1h3.452c3.539 0 5.308 0 6.407-1.1 1.099-1.1 1.099-2.87 1.099-6.41V39.032h.028c.006-4.788-.878-8.636-2.655-11.547a15.727 15.727 0 0 0-7.937-6.57 35.284 35.284 0 0 0-13.05-2.141 49.605 49.605 0 0 0-11.568 1.352 80.432 80.432 0 0 0-10.893 3.417 105.317 105.317 0 0 0-4.519 1.9 15.956 15.956 0 0 0-6.448-4.529 34.92 34.92 0 0 0-13.013-2.14 49.04 49.04 0 0 0-11.521 1.352 75.626 75.626 0 0 0-10.808 3.464c-.63.255-1.252.513-1.868.773-.256-1.264-.385-1.896-.662-2.4a3.755 3.755 0 0 0-2.164-1.769 2.973 2.973 0 0 0-.484-.106 5.637 5.637 0 0 0-.478-.044c-.17-.01-.357-.015-.568-.018-.274-.004-.587-.004-.952-.004h-4.392Z" fill="url(#g)"/><path fill-rule="evenodd" clip-rule="evenodd" d="M269.281 1.1c1.1-1.1 2.869-1.1 6.407-1.1h3.481c3.538 0 5.307 0 6.406 1.1 1.099 1.1 1.099 2.87 1.099 6.41v15.513a100.626 100.626 0 0 1 9.232-2.455 78.29 78.29 0 0 1 16.887-1.812c8.444 0 14.934 1.815 19.468 5.445 4.535 3.63 6.799 9.334 6.793 17.113 0 5.126-1.054 9.306-3.162 12.542a18.578 18.578 0 0 1-9.166 7.181 40.81 40.81 0 0 1-14.636 2.328h-36.402c-3.538 0-5.307 0-6.407-1.1-1.099-1.1-1.099-2.87-1.099-6.41V7.51c0-3.54 0-5.31 1.099-6.41Zm29.618 33.793c-3.886.73-7.961 1.656-12.225 2.782v10.82h23.615c1.985.06 3.968-.196 5.873-.76a6.342 6.342 0 0 0 3.33-2.365 7.027 7.027 0 0 0 1.098-4.056c0-2.703-.732-4.662-2.195-5.876-1.464-1.215-3.853-1.818-7.168-1.812-4.14.042-8.266.467-12.328 1.267Z" fill="url(#h)"/><path d="M573.34 34.893h25.416c3.465 0 5.197 0 6.289-1.058.028-.028.056-.055.083-.084 1.058-1.092 1.058-2.825 1.058-6.293 0-3.467 0-5.2-1.058-6.293a3.435 3.435 0 0 0-.083-.083c-1.092-1.059-2.824-1.059-6.289-1.059H573.34v-3.801c0-3.54 0-5.31-1.099-6.41-1.099-1.1-2.868-1.1-6.406-1.1h-1.728c-2.748 0-4.122 0-5.129.767-1.007.767-1.373 2.092-2.105 4.742l-1.604 5.802h-1.856c-3.465 0-5.198 0-6.29 1.059l-.083.083c-1.058 1.093-1.058 2.826-1.058 6.293 0 3.468 0 5.201 1.058 6.293l.032.033.051.05c1.092 1.06 2.825 1.06 6.29 1.06h1.351v8.448c0 5.175 1.11 9.319 3.33 12.429a18.26 18.26 0 0 0 9.71 6.721 52.273 52.273 0 0 0 15.669 2.028c4.748.005 9.49-.35 14.185-1.06a199.69 199.69 0 0 0 4.87-.804c3.394-.606 5.091-.909 5.978-2.267.886-1.358.467-3.096-.371-6.571l-.104-.43c-.789-3.274-1.185-4.911-2.418-5.726-1.234-.815-2.919-.531-6.29.037a352.766 352.766 0 0 1-2.847.468 71.632 71.632 0 0 1-11.315.807 31.33 31.33 0 0 1-7.092-.638 5.627 5.627 0 0 1-3.678-2.319 8.935 8.935 0 0 1-1.051-4.693v-6.43Z" fill="url(#i)"/><path fill-rule="evenodd" clip-rule="evenodd" d="M353.22 24.184c-6.367 3.692-9.55 9.484-9.55 17.377 0 7.92 3.183 13.716 9.55 17.39 6.367 3.675 15.979 5.512 28.836 5.512 12.954.027 22.6-1.811 28.941-5.512 6.341-3.7 9.511-9.497 9.511-17.39-.017-7.91-3.188-13.703-9.511-17.377-6.324-3.675-15.97-5.512-28.941-5.512-12.857-.017-22.469 1.82-28.836 5.512Zm15.218 21.887a5.26 5.26 0 0 1-7.441 0 5.262 5.262 0 1 1 7.441 0Zm35.519 0a5.262 5.262 0 1 1-7.442-7.443 5.262 5.262 0 0 1 7.442 7.443Zm-25.355-2.493a1.972 1.972 0 0 0-3.36 1.403 7.327 7.327 0 0 0 .918 3.281c1.005 1.76 2.971 3.297 6.317 3.297s5.312-1.537 6.317-3.297a7.156 7.156 0 0 0 .801-2.193c.062-.317.115-.764.117-1.088a1.962 1.962 0 0 0-.57-1.398 1.974 1.974 0 0 0-3.376 1.376 3.196 3.196 0 0 1-.398 1.346c-.31.541-.976 1.307-2.891 1.307s-2.581-.766-2.892-1.308c-.192-.335-.394-1.04-.397-1.345a1.976 1.976 0 0 0-.586-1.381Z" fill="url(#j)"/><defs><linearGradient id="a" x1="304.5" y1="0" x2="304.5" y2="80" gradientUnits="userSpaceOnUse"><stop stop-color="#E14"/><stop offset="1" stop-color="#E4B"/></linearGradient><linearGradient id="b" x1="304.5" y1="0" x2="304.5" y2="80" gradientUnits="userSpaceOnUse"><stop stop-color="#E14"/><stop offset="1" stop-color="#E4B"/></linearGradient><linearGradient id="c" x1="304.5" y1="0" x2="304.5" y2="80" gradientUnits="userSpaceOnUse"><stop stop-color="#E14"/><stop offset="1" stop-color="#E4B"/></linearGradient><linearGradient id="d" x1="304.5" y1="0" x2="304.5" y2="80" gradientUnits="userSpaceOnUse"><stop stop-color="#E14"/><stop offset="1" stop-color="#E4B"/></linearGradient><linearGradient id="e" x1="304.5" y1="0" x2="304.5" y2="80" gradientUnits="userSpaceOnUse"><stop stop-color="#E14"/><stop offset="1" stop-color="#E4B"/></linearGradient><linearGradient id="f" x1="304.5" y1="0" x2="304.5" y2="80" gradientUnits="userSpaceOnUse"><stop stop-color="#E14"/><stop offset="1" stop-color="#E4B"/></linearGradient><linearGradient id="g" x1="304.5" y1="0" x2="304.5" y2="80" gradientUnits="userSpaceOnUse"><stop stop-color="#E14"/><stop offset="1" stop-color="#E4B"/></linearGradient><linearGradient id="h" x1="304.5" y1="0" x2="304.5" y2="80" gradientUnits="userSpaceOnUse"><stop stop-color="#E14"/><stop offset="1" stop-color="#E4B"/></linearGradient><linearGradient id="i" x1="304.5" y1="0" x2="304.5" y2="80" gradientUnits="userSpaceOnUse"><stop stop-color="#E14"/><stop offset="1" stop-color="#E4B"/></linearGradient><linearGradient id="j" x1="304.5" y1="0" x2="304.5" y2="80" gradientUnits="userSpaceOnUse"><stop stop-color="#E14"/><stop offset="1" stop-color="#E4B"/></linearGradient></defs></svg>